<svg xmlns="http://www.w3.org/2000/svg" viewBox="0 0 64 64" width="512px" height="512px"><linearGradient id="ByJ5~6qOtUTWWLIFXzNn4a" x1="32" x2="32" y1="9.681" y2="56.434" gradientUnits="userSpaceOnUse"><stop offset="0" stop-color="#1a6dff"/><stop offset="1" stop-color="#c822ff"/></linearGradient><path fill="url(#ByJ5~6qOtUTWWLIFXzNn4a)" d="M51,56H13c-2.757,0-5-2.243-5-5V13c0-2.757,2.243-5,5-5h38c2.757,0,5,2.243,5,5v38 C56,53.757,53.757,56,51,56z M13,10c-1.654,0-3,1.346-3,3v38c0,1.654,1.346,3,3,3h38c1.654,0,3-1.346,3-3V13c0-1.654-1.346-3-3-3 H13z"/><g><linearGradient id="ByJ5~6qOtUTWWLIFXzNn4b" x1="21.412" x2="21.412" y1="17.851" y2="45.426" gradientUnits="userSpaceOnUse"><stop offset="0" stop-color="#6dc7ff"/><stop offset="1" stop-color="#e6abff"/></linearGradient><circle cx="21.412" cy="20.5" r="2.5" fill="url(#ByJ5~6qOtUTWWLIFXzNn4b)"/><linearGradient id="ByJ5~6qOtUTWWLIFXzNn4c" x1="29.483" x2="29.483" y1="17.851" y2="45.426" gradientUnits="userSpaceOnUse"><stop offset="0" stop-color="#6dc7ff"/><stop offset="1" stop-color="#e6abff"/></linearGradient><circle cx="29.483" cy="20.529" r="3.5" fill="url(#ByJ5~6qOtUTWWLIFXzNn4c)"/><linearGradient id="ByJ5~6qOtUTWWLIFXzNn4d" x1="39.5" x2="39.5" y1="17.851" y2="45.426" gradientUnits="userSpaceOnUse"><stop offset="0" stop-color="#6dc7ff"/><stop offset="1" stop-color="#e6abff"/></linearGradient><circle cx="39.5" cy="21.5" r="4.5" fill="url(#ByJ5~6qOtUTWWLIFXzNn4d)"/><linearGradient id="ByJ5~6qOtUTWWLIFXzNn4e" x1="32" x2="32" y1="17.851" y2="45.426" gradientUnits="userSpaceOnUse"><stop offset="0" stop-color="#6dc7ff"/><stop offset="1" stop-color="#e6abff"/></linearGradient><path fill="url(#ByJ5~6qOtUTWWLIFXzNn4e)" d="M40.44,28.175c-2.141-0.26-4.125,0.39-5.635,1.606c-0.578-2.15-2.499-3.74-4.805-3.74 c-1.734,0-3.26,0.895-4.157,2.253C25.344,26.461,23.597,25.1,21.5,25.1c-2.485,0-4.5,1.902-4.5,4.25V37h8v5h7v6h15V35.903 C47,32.069,44.246,28.638,40.44,28.175z"/></g></svg>